HIERARCHY
ROOT Hips
{
  OFFSET 373.837 88.1643 177.628
  CHANNELS 6 Xposition Yposition Zposition Zrotation Xrotation Yrotation
  JOINT RightUpLeg
  {
    OFFSET -9.27602 -1.55371 -0.0617006
    CHANNELS 3 Zrotation Xrotation Yrotation
    JOINT RightLeg
    {
      OFFSET 0.0569767 -41.8713 0.0644562
      CHANNELS 3 Zrotation Xrotation Yrotation
      JOINT RightFoot
      {
        OFFSET -0.463049 -43.0064 -0.0336586
        CHANNELS 3 Zrotation Xrotation Yrotation
        End Site
        {
          OFFSET 0 -7.69 17.5
        }
      }
    }
  }
  JOINT LeftUpLeg
  {
    OFFSET 9.29312 -1.63815 0.0236341
    CHANNELS 3 Zrotation Xrotation Yrotation
    JOINT LeftLeg
    {
      OFFSET 0.0670365 -41.8776 -0.0578197
      CHANNELS 3 Zrotation Xrotation Yrotation
      JOINT LeftFoot
      {
        OFFSET 0.591956 -40.8352 0.210268
        CHANNELS 3 Zrotation Xrotation Yrotation
        End Site
        {
          OFFSET 0 -7.69 17.5
        }
      }
    }
  }
  JOINT Spine
  {
    OFFSET 0.0229142 14.2949 0.0394214
    CHANNELS 3 Zrotation Xrotation Yrotation
    JOINT Spine1
    {
      OFFSET 0.0328969 9.71943 0.0194292
      CHANNELS 3 Zrotation Xrotation Yrotation
      JOINT Spine2
      {
        OFFSET 0.0292955 10.1244 -0.00440821
        CHANNELS 3 Zrotation Xrotation Yrotation
        JOINT Spine3
        {
          OFFSET 0.024556 9.71184 0.0101567
          CHANNELS 3 Zrotation Xrotation Yrotation
          JOINT Neck
          {
            OFFSET 0.152325 10.3757 0.0664015
            CHANNELS 3 Zrotation Xrotation Yrotation
            JOINT Head
            {
              OFFSET 0.134553 9.4858 0.0499874
              CHANNELS 3 Zrotation Xrotation Yrotation
              End Site
              {
                OFFSET 0 15.95 0
              }
            }
          }
          JOINT RightShoulder
          {
            OFFSET -3.19519 6.89024 -0.0330231
            CHANNELS 3 Zrotation Xrotation Yrotation
            JOINT RightArm
            {
              OFFSET -12.6524 0.0927817 0.0603028
              CHANNELS 3 Zrotation Xrotation Yrotation
              JOINT RightForeArm
              {
                OFFSET -26.4983 -0.141459 0.202928
                CHANNELS 3 Zrotation Xrotation Yrotation
                JOINT RightHand
                {
                  OFFSET -25.9883 -0.0240172 0.0141731
                  CHANNELS 3 Zrotation Xrotation Yrotation
                  JOINT RightHandThumb1
                  {
                    OFFSET -2.48905 0.190105 3.12053
                    CHANNELS 3 Zrotation Xrotation Yrotation
                    JOINT RightHandThumb2
                    {
                      OFFSET -3.68274 0 0
                      CHANNELS 3 Zrotation Xrotation Yrotation
                      JOINT RightHandThumb3
                      {
                        OFFSET -2.55832 0 0
                        CHANNELS 3 Zrotation Xrotation Yrotation
                        End Site
                        {
                          OFFSET -2.194 0 0
                        }
                      }
                    }
                  }
                  JOINT RightInHandIndex
                  {
                    OFFSET -3.22368 0.508421 1.97842
                    CHANNELS 3 Zrotation Xrotation Yrotation
                    JOINT RightHandIndex1
                    {
                      OFFSET -5.21684 -0.091368 0.999158
                      CHANNELS 3 Zrotation Xrotation Yrotation
                      JOINT RightHandIndex2
                      {
                        OFFSET -3.61937 0 0
                        CHANNELS 3 Zrotation Xrotation Yrotation
                        JOINT RightHandIndex3
                        {
                          OFFSET -2.0521 0 0
                          CHANNELS 3 Zrotation Xrotation Yrotation
                          End Site
                          {
                            OFFSET -1.805 0 0
                          }
                        }
                      }
                    }
                  }
                  JOINT RightInHandMiddle
                  {
                    OFFSET -3.38211 0.517263 0.756737
                    CHANNELS 3 Zrotation Xrotation Yrotation
                    JOINT RightHandMiddle1
                    {
                      OFFSET -5.17411 -0.084 0.313895
                      CHANNELS 3 Zrotation Xrotation Yrotation
                      JOINT RightHandMiddle2
                      {
                        OFFSET -3.94947 0 0
                        CHANNELS 3 Zrotation Xrotation Yrotation
                        JOINT RightHandMiddle3
                        {
                          OFFSET -2.47579 0 0
                          CHANNELS 3 Zrotation Xrotation Yrotation
                          End Site
                          {
                            OFFSET -1.975 0 0
                          }
                        }
                      }
                    }
                  }
                  JOINT RightInHandRing
                  {
                    OFFSET -3.36516 0.537895 -0.128947
                    CHANNELS 3 Zrotation Xrotation Yrotation
                    JOINT RightHandRing1
                    {
                      OFFSET -4.63474 -0.022105 -0.478947
                      CHANNELS 3 Zrotation Xrotation Yrotation
                      JOINT RightHandRing2
                      {
                        OFFSET -3.44238 0 0
                        CHANNELS 3 Zrotation Xrotation Yrotation
                        JOINT RightHandRing3
                        {
                          OFFSET -2.3881 0 0
                          CHANNELS 3 Zrotation Xrotation Yrotation
                          End Site
                          {
                            OFFSET -1.857 0 0
                          }
                        }
                      }
                    }
                  }
                  JOINT RightInHandPinky
                  {
                    OFFSET -3.16105 0.469368 -1.20179
                    CHANNELS 3 Zrotation Xrotation Yrotation
                    JOINT RightHandPinky1
                    {
                      OFFSET -4.14105 -0.022105 -1.09053
                      CHANNELS 3 Zrotation Xrotation Yrotation
                      JOINT RightHandPinky2
                      {
                        OFFSET -2.75653 0 0
                        CHANNELS 3 Zrotation Xrotation Yrotation
                        JOINT RightHandPinky3
                        {
                          OFFSET -1.74189 0 0
                          CHANNELS 3 Zrotation Xrotation Yrotation
                          End Site
                          {
                            OFFSET -1.645 0 0
                          }
                        }
                      }
                    }
                  }
                }
              }
            }
          }
          JOINT LeftShoulder
          {
            OFFSET 3.28609 6.87948 -0.0751467
            CHANNELS 3 Zrotation Xrotation Yrotation
            JOINT LeftArm
            {
              OFFSET 12.831 -0.0663252 -0.1321
              CHANNELS 3 Zrotation Xrotation Yrotation
              JOINT LeftForeArm
              {
                OFFSET 26.5106 -0.082189 -0.0903645
                CHANNELS 3 Zrotation Xrotation Yrotation
                JOINT LeftHand
                {
                  OFFSET 25.9965 -0.0307163 -0.0535747
                  CHANNELS 3 Zrotation Xrotation Yrotation
                  JOINT LeftHandThumb1
                  {
                    OFFSET 2.48905 0.190105 3.12053
                    CHANNELS 3 Zrotation Xrotation Yrotation
                    JOINT LeftHandThumb2
                    {
                      OFFSET 3.68274 0 0
                      CHANNELS 3 Zrotation Xrotation Yrotation
                      JOINT LeftHandThumb3
                      {
                        OFFSET 2.55832 0 0
                        CHANNELS 3 Zrotation Xrotation Yrotation
                        End Site
                        {
                          OFFSET 2.194 0 0
                        }
                      }
                    }
                  }
                  JOINT LeftInHandIndex
                  {
                    OFFSET 3.22368 0.508421 1.97842
                    CHANNELS 3 Zrotation Xrotation Yrotation
                    JOINT LeftHandIndex1
                    {
                      OFFSET 5.21684 -0.091368 0.999158
                      CHANNELS 3 Zrotation Xrotation Yrotation
                      JOINT LeftHandIndex2
                      {
                        OFFSET 3.61937 0 0
                        CHANNELS 3 Zrotation Xrotation Yrotation
                        JOINT LeftHandIndex3
                        {
                          OFFSET 2.0521 0 0
                          CHANNELS 3 Zrotation Xrotation Yrotation
                          End Site
                          {
                            OFFSET 1.805 0 0
                          }
                        }
                      }
                    }
                  }
                  JOINT LeftInHandMiddle
                  {
                    OFFSET 3.38211 0.517263 0.756737
                    CHANNELS 3 Zrotation Xrotation Yrotation
                    JOINT LeftHandMiddle1
                    {
                      OFFSET 5.17411 -0.084 0.313895
                      CHANNELS 3 Zrotation Xrotation Yrotation
                      JOINT LeftHandMiddle2
                      {
                        OFFSET 3.94947 0 0
                        CHANNELS 3 Zrotation Xrotation Yrotation
                        JOINT LeftHandMiddle3
                        {
                          OFFSET 2.47579 0 0
                          CHANNELS 3 Zrotation Xrotation Yrotation
                          End Site
                          {
                            OFFSET 1.975 0 0
                          }
                        }
                      }
                    }
                  }
                  JOINT LeftInHandRing
                  {
                    OFFSET 3.36516 0.537895 -0.128947
                    CHANNELS 3 Zrotation Xrotation Yrotation
                    JOINT LeftHandRing1
                    {
                      OFFSET 4.63474 -0.022105 -0.478947
                      CHANNELS 3 Zrotation Xrotation Yrotation
                      JOINT LeftHandRing2
                      {
                        OFFSET 3.44238 0 0
                        CHANNELS 3 Zrotation Xrotation Yrotation
                        JOINT LeftHandRing3
                        {
                          OFFSET 2.3881 0 0
                          CHANNELS 3 Zrotation Xrotation Yrotation
                          End Site
                          {
                            OFFSET 1.857 0 0
                          }
                        }
                      }
                    }
                  }
                  JOINT LeftInHandPinky
                  {
                    OFFSET 3.16105 0.469368 -1.20179
                    CHANNELS 3 Zrotation Xrotation Yrotation
                    JOINT LeftHandPinky1
                    {
                      OFFSET 4.14105 -0.022105 -1.09053
                      CHANNELS 3 Zrotation Xrotation Yrotation
                      JOINT LeftHandPinky2
                      {
                        OFFSET 2.75653 0 0
                        CHANNELS 3 Zrotation Xrotation Yrotation
                        JOINT LeftHandPinky3
                        {
                          OFFSET 1.74189 0 0
                          CHANNELS 3 Zrotation Xrotation Yrotation
                          End Site
                          {
                            OFFSET 1.645 0 0
                          }
                        }
                      }
                    }
                  }
                }
              }
            }
          }
        }
      }
    }
  }
}
MOTION
Frames:	4
Frame Time:	0.00833333
360.702 87.7486 180.181 22.8488 -1.11694 -144.637 35.901 -35.174 29.377 -5.38302 12.7481 0.947618 12.0354 17.1046 57.8766 32.2269 -11.3211 21.3565 -25.7579 41.5733 25.4947 9.0118 -19.6742 23.5237 -2.6706 -3.75911 -9.67946 -0.608526 -1.0177 -2.38046 -1.03044 -1.70495 -3.91269 -0.747524 -0.494968 2.73456 0.612813 -8.54612 43.9573 -11.9323 10.7027 26.3556 -2.22299 1.53943 4.74392 34.0533 -66.8662 3.66467 38.8396 -7.74368 116.422 -1.82348 -30.7603 -4.8204 28.184 10.7294 19.1592 6.89419e-15 -3.00662e-15 -10 -7.24633e-15 2.23633e-16 -10 2.78299e-15 -6.36111e-15 -6.36111e-15 19.9818 0.871897 2.3964 24 -6.36111e-15 1.59028e-15 20 7.15625e-15 3.97569e-14 2.78299e-15 -6.36111e-15 -6.36111e-15 20 -3.18055e-15 -2.88238e-15 24 -3.18055e-15 -7.95139e-16 20 4.77083e-15 3.10104e-14 2.78299e-15 -6.36111e-15 -6.36111e-15 19.9748 -1.02565 -2.81938 24 -1.59028e-15 -2.98177e-15 20 1.11319e-14 2.8625e-14 2.78299e-15 -6.36111e-15 -6.36111e-15 19.7815 -3.00948 -8.30515 24 -3.18055e-15 -3.57812e-15 20 0 8.34896e-15 7.22788 -25.5137 -55.3386 -26.6009 23.2965 -101.96 37.7196 -5.85901 -33.6941 -23.5313 -14.522 -12.1408 -28.184 10.7294 -19.1592 7.17717e-15 -6.36111e-15 10 1.2673e-15 -3.18055e-15 10 2.65874e-15 -7.95139e-16 -1.59028e-15 -19.9818 0.871897 -2.3964 -24 -2.78299e-15 1.90833e-14 -20 -1.59028e-15 7.15625e-15 2.65874e-15 -7.95139e-16 -1.59028e-15 -20 -1.39149e-15 7.15625e-15 -24 -6.75868e-15 7.95139e-16 -20 7.95139e-16 -1.59028e-15 2.65874e-15 -7.95139e-16 -1.59028e-15 -19.9748 -1.02565 2.81938 -24 1.39149e-15 1.43125e-14 -20 -5.31749e-15 6.75868e-15 2.65874e-15 -7.95139e-16 -1.59028e-15 -19.7815 -3.00948 8.30515 -24 0 1.15295e-14 -20 -7.15625e-15 6.26172e-15 
360.738 87.7513 180.218 22.8588 -1.10239 -144.673 35.9338 -35.1935 29.3587 -5.35736 12.7646 1.02023 11.8999 17.0761 57.8888 32.2336 -11.33 21.3877 -25.7133 41.5658 25.4708 9.09452 -19.5749 23.5655 -2.71636 -3.78514 -9.71356 -0.619345 -1.02617 -2.388 -1.04856 -1.71952 -3.92443 -0.742808 -0.487588 2.73496 0.597634 -8.44209 43.9389 -11.8656 10.7086 26.3796 -2.23404 1.59541 4.68957 33.8733 -66.9259 3.40924 38.5019 -7.73632 116.604 -1.57782 -29.978 -4.42892 28.184 10.7294 19.1592 1.1863e-14 5.96354e-16 -10 4.41766e-15 -1.59028e-15 -10 4.96962e-16 -4.77083e-15 -7.15625e-15 19.9818 0.871897 2.3964 24 -5.56597e-15 7.95139e-16 20 8.74653e-15 4.13472e-14 4.96962e-16 -4.77083e-15 -7.15625e-15 20 -3.18055e-15 -3.13086e-15 24 -3.18055e-15 -3.57812e-15 20 9.54166e-15 2.70347e-14 4.96962e-16 -4.77083e-15 -7.15625e-15 19.9748 -1.02565 -2.81938 24 0 -3.97569e-15 20 9.54166e-15 2.94201e-14 4.96962e-16 -4.77083e-15 -7.15625e-15 19.7815 -3.00948 -8.30515 24 -4.77083e-15 -3.97569e-16 20 -3.18055e-15 7.95139e-15 7.36408 -25.4461 -55.2459 -26.5752 23.1947 -102.096 37.6367 -6.01579 -33.9525 -23.5502 -14.5361 -12.2902 -28.184 10.7294 -19.1592 1.49152e-15 -1.59028e-15 10 -2.90447e-15 1.59028e-15 10 -2.23633e-15 -3.97569e-16 -0 -19.9818 0.871897 -2.3964 -24 -3.18055e-15 1.82882e-14 -20 -1.59028e-15 5.56597e-15 -2.23633e-15 -3.97569e-16 -0 -20 -1.59028e-15 3.97569e-15 -24 -5.96354e-15 -7.95139e-16 -20 0 -3.97569e-15 -2.23633e-15 -3.97569e-16 -0 -19.9748 -1.02565 2.81938 -24 1.78906e-15 1.47101e-14 -20 -5.09386e-15 5.56597e-15 -2.23633e-15 -3.97569e-16 -0 -19.7815 -3.00948 8.30515 -24 -7.95139e-16 1.15295e-14 -20 -5.56597e-15 6.01324e-15 
360.776 87.753 180.265 22.8614 -1.08824 -144.741 35.982 -35.1896 29.3798 -5.33933 12.7923 1.08622 11.7379 17.019 57.8999 32.2481 -11.3015 21.4435 -25.6963 41.5698 25.4592 9.12609 -19.55 23.581 -2.72524 -3.78639 -9.69029 -0.621682 -1.02672 -2.38199 -1.05243 -1.72058 -3.9146 -0.741645 -0.482047 2.73533 0.580859 -8.37743 43.9007 -11.8539 10.7608 26.387 -2.27975 1.61778 4.57813 33.8325 -66.9787 3.33328 38.1665 -7.75697 116.765 -1.64481 -29.952 -4.49392 28.184 10.7294 19.1592 3.28581e-15 3.18055e-15 -10 -1.28518e-15 -2.38542e-15 -10 8.94531e-16 -4.77083e-15 -5.96354e-15 19.9818 0.871897 2.3964 24 -3.18055e-15 -7.95139e-16 20 8.74653e-15 3.97569e-14 8.94531e-16 -4.77083e-15 -5.96354e-15 20 -6.36111e-15 -2.88238e-15 24 -7.95139e-15 -0 20 1.19271e-14 2.94201e-14 8.94531e-16 -4.77083e-15 -5.96354e-15 19.9748 -1.02565 -2.81938 24 -1.59028e-15 -7.55382e-15 20 1.27222e-14 2.8625e-14 8.94531e-16 -4.77083e-15 -5.96354e-15 19.7815 -3.00948 -8.30515 24 -7.95139e-15 -2.78299e-15 20 -6.36111e-15 1.0138e-14 7.32973 -25.4328 -55.2685 -26.5307 23.1528 -102.127 37.5021 -6.40975 -34.533 -23.5799 -14.482 -12.0411 -28.184 10.7294 -19.1592 5.68566e-15 -4.77083e-15 10 1.69337e-15 -1.59028e-15 10 1.19271e-15 -3.97569e-16 -0 -19.9818 0.871897 -2.3964 -24 -2.38542e-15 1.51076e-14 -20 0 5.56597e-15 1.19271e-15 -3.97569e-16 -0 -20 -1.59028e-15 4.77083e-15 -24 -6.55989e-15 -7.95139e-16 -20 1.19271e-15 -1.59028e-15 1.19271e-15 -3.97569e-16 -0 -19.9748 -1.02565 2.81938 -24 1.59028e-15 1.39149e-14 -20 -5.1684e-15 5.56597e-15 1.19271e-15 -3.97569e-16 -0 -19.7815 -3.00948 8.30515 -24 0 1.2921e-14 -20 -6.36111e-15 6.4605e-15 
360.814 87.7537 180.311 22.8675 -1.07228 -144.797 36.027 -35.1911 29.386 -5.32859 12.8117 1.15147 11.5093 16.9445 57.9418 32.2805 -11.2538 21.4804 -25.7143 41.5631 25.4712 9.11617 -19.5556 23.5738 -2.70276 -3.7783 -9.64752 -0.616446 -1.02355 -2.37172 -1.04364 -1.71506 -3.89817 -0.738378 -0.478201 2.73566 0.564082 -8.34308 43.8615 -11.8847 10.8469 26.3894 -2.35623 1.5976 4.46751 33.8046 -66.9979 3.28254 37.8385 -7.83044 116.91 -1.65203 -29.8437 -4.52682 28.184 10.7294 19.1592 1.25764e-14 -7.95139e-16 -10 8.91873e-15 -1.19271e-15 -10 1.59028e-15 -6.36111e-15 -7.55382e-15 19.9818 0.871897 2.3964 24 -3.97569e-15 -7.95139e-16 20 7.15625e-15 4.37326e-14 1.59028e-15 -6.36111e-15 -7.55382e-15 20 -4.77083e-15 -5.1684e-15 24 -4.77083e-15 -2.38542e-15 20 7.95139e-15 3.18055e-14 1.59028e-15 -6.36111e-15 -7.55382e-15 19.9748 -1.02565 -2.81938 24 -1.59028e-15 -4.96962e-15 20 7.95139e-15 3.02153e-14 1.59028e-15 -6.36111e-15 -7.55382e-15 19.7815 -3.00948 -8.30515 24 3.18055e-15 -1.59028e-15 20 -7.95139e-15 9.54166e-15 7.20008 -25.4437 -55.3405 -26.4804 23.163 -102.164 37.397 -6.63456 -34.8265 -23.6417 -14.4504 -12.0518 -28.184 10.7294 -19.1592 -9.30699e-16 -1.59028e-15 10 -2.98303e-15 3.18055e-15 10 -4.72114e-15 0 -0 -19.9818 0.871897 -2.3964 -24 -2.38542e-15 1.74931e-14 -20 -2.38542e-15 6.36111e-15 -4.72114e-15 0 -0 -20 -1.19271e-15 2.38542e-15 -24 -5.56597e-15 -7.95139e-16 -20 7.95139e-16 -2.38542e-15 -4.72114e-15 0 -0 -19.9748 -1.02565 2.81938 -24 1.49089e-15 1.43125e-14 -20 -5.1684e-15 5.96354e-15 -4.72114e-15 0 -0 -19.7815 -3.00948 8.30515 -24 -7.95139e-16 1.33186e-14 -20 -6.36111e-15 6.36111e-15 
